 <svg  version="1.0" xmlns="http://www.w3.org/2000/svg"  width="246.000000pt" height="205.000000pt" viewBox="0 0 246.000000 205.000000"  preserveAspectRatio="xMidYMid meet">  <g transform="translate(0.000000,205.000000) scale(0.050000,-0.050000)" fill="#d30c93" stroke="none"> <path d="M2570 3760 c-7 -11 -6 -83 1 -160 l14 -140 -127 -4 c-71 -2 -164 -5 -207 -5 -66 -1 -81 -9 -90 -47 -18 -77 -48 -52 -71 60 -24 116 -57 178 -113 213 -53 34 -71 -53 -27 -137 78 -151 92 -263 42 -340 -57 -88 -252 -488 -252 -518 0 -53 -34 -15 -54 63 -13 47 -51 126 -84 175 -34 50 -61 100 -62 112 0 12 -35 76 -78 143 l-78 121 -111 -37 c-60 -20 -128 -45 -149 -57 -34 -18 -50 -8 -113 68 -86 105 -88 105 -158 41 l-53 -49 59 -100 58 -99 -53 -35 c-249 -161 -584 -560 -584 -694 0 -62 126 -117 370 -162 156 -29 339 -82 370 -107 5 -4 -44 -56 -110 -115 -113 -101 -118 -109 -86 -142 25 -25 41 -29 60 -13 19 16 55 14 128 -5 56 -14 162 -33 235 -40 144 -16 153 -24 94 -74 -21 -18 -55 -79 -74 -135 -32 -88 -43 -101 -91 -101 -98 0 -160 -98 -114 -183 40 -76 129 -92 568 -106 525 -16 810 -68 810 -148 0 -45 -6 -47 -75 -36 -41 7 -118 13 -170 13 -92 0 -95 2 -95 59 0 32 -9 64 -20 71 -24 15 -140 -50 -140 -79 0 -12 -51 -21 -120 -21 -109 0 -120 4 -120 43 0 33 -16 46 -73 56 -82 16 -106 -5 -107 -92 0 -42 -12 -54 -63 -65 -92 -18 -93 -17 -108 53 -16 77 -46 119 -72 103 -10 -6 -31 -1 -47 12 -41 34 -70 7 -70 -64 0 -56 -4 -60 -55 -48 -30 7 -92 19 -138 25 -59 8 -87 23 -93 49 -13 50 -47 48 -74 -3 -12 -22 -31 -35 -41 -28 -44 27 -1 -122 43 -152 15 -9 158 -309 158 -330 0 -5 -13 -9 -29 -9 -36 0 -62 -77 -34 -105 38 -38 435 -45 489 -9 39 25 75 27 213 12 113 -13 232 -11 369 4 111 13 346 26 522 29 176 4 383 16 459 27 170 25 168 26 122 -108 -30 -89 -32 -114 -12 -139 69 -83 194 10 143 105 -38 72 -28 140 23 148 32 4 43 17 39 46 -3 22 -6 76 -6 120 2 239 -74 359 -165 261 -57 -61 -113 -67 -113 -12 0 21 -20 52 -43 69 -83 58 224 58 438 0 31 -9 48 -2 58 22 16 41 -23 69 -96 70 -34 0 -64 18 -85 50 -44 66 -28 64 183 -30 181 -80 290 -100 317 -57 8 13 0 33 -17 46 -36 26 -65 228 -39 268 32 46 464 -124 589 -233 19 -17 35 -24 35 -16 0 8 25 -3 56 -25 69 -49 77 -45 185 117 48 72 99 137 113 146 161 100 81 858 -102 975 -133 85 -710 -2 -886 -134 -84 -62 -83 -64 -61 68 10 63 14 207 7 320 -13 227 -8 238 125 317 85 49 101 105 43 152 -62 50 -72 47 -164 -54 l-82 -90 -45 99 c-26 54 -69 119 -97 143 -49 42 -49 46 -19 98 21 36 28 74 19 109 -14 55 -60 61 -65 9 -1 -15 -4 -41 -5 -58 -6 -67 -33 -86 -84 -57 -27 15 -51 28 -54 30 -3 1 23 58 57 126 46 90 69 119 85 103 36 -36 94 -26 94 16 0 51 -35 74 -134 89 -90 14 -124 -8 -79 -51 34 -31 -70 -256 -119 -256 -37 0 -38 -8 42 225 41 121 62 211 52 221 -25 25 -61 0 -83 -58 -15 -39 -26 -45 -63 -31 -177 66 -401 27 -241 -41 30 -13 58 -26 61 -27 5 -3 -39 -190 -48 -205 -2 -4 -41 4 -86 18 -88 26 -84 18 -94 218 -3 61 -6 117 -7 125 -2 22 -57 18 -71 -5z m505 -191 c8 -4 -59 -198 -76 -216 -55 -61 -93 26 -62 144 32 124 35 126 138 72z m-483 -259 c14 -56 43 -66 61 -20 12 31 79 40 135 18 18 -7 27 -20 22 -29 -35 -56 -19 -289 20 -289 29 0 38 11 33 40 -14 83 -8 213 11 232 32 32 91 -2 78 -45 -7 -20 -18 -55 -24 -77 -21 -66 44 -48 72 20 28 68 80 81 80 20 0 -22 13 -40 30 -40 17 0 30 9 30 20 0 11 19 20 42 20 23 0 38 -7 34 -15 -65 -138 -110 -205 -136 -205 -17 0 -98 -32 -181 -72 -136 -65 -151 -68 -169 -37 -74 126 -170 254 -262 350 -122 125 -126 133 -63 145 127 24 174 15 187 -36z m-271 -74 c33 -24 59 -62 59 -86 0 -27 31 -64 85 -102 58 -41 107 -102 153 -189 102 -193 81 -187 288 -90 101 47 207 95 234 106 36 14 58 46 77 112 48 164 133 141 213 -60 l33 -83 -130 -130 c-126 -127 -131 -129 -165 -92 -110 122 -537 -55 -577 -239 -16 -71 54 -326 99 -363 17 -14 28 -49 26 -78 -5 -68 16 -102 64 -102 20 0 43 -17 49 -37 29 -92 215 -111 310 -31 131 111 223 424 174 592 l-32 106 93 94 c100 101 134 108 106 21 -9 -30 -22 -159 -27 -287 -6 -128 -26 -297 -44 -376 l-32 -143 -221 -186 -221 -185 -178 40 c-159 36 -177 45 -177 85 0 58 -70 100 -111 66 -16 -13 -29 -41 -29 -61 0 -47 23 -49 -222 24 -224 66 -228 69 -259 188 -28 106 -124 330 -142 330 -8 0 -24 34 -37 75 -43 141 -65 184 -85 172 -11 -7 -16 -5 -12 5 5 10 50 104 100 208 119 245 177 379 177 408 1 12 17 43 37 69 70 92 79 -290 10 -431 -76 -155 -28 -386 80 -386 15 0 41 -51 60 -121 53 -191 130 -196 97 -6 -19 115 -19 117 55 226 160 236 219 488 132 561 -42 34 -163 30 -221 -8 l-50 -33 -1 86 c-1 47 -8 121 -17 165 -14 72 -9 86 45 145 72 77 61 75 134 21z m-989 -177 c24 -87 121 -337 185 -479 26 -59 34 -194 13 -217 -4 -3 -48 35 -98 86 -118 120 -136 105 -89 -71 21 -79 36 -145 33 -148 -105 -91 -223 -94 -267 -8 -37 72 -69 73 -127 6 -33 -38 -57 -48 -89 -39 -23 7 -124 27 -223 44 -99 17 -201 44 -226 60 l-46 29 61 113 c34 61 61 123 61 137 0 27 238 249 373 348 l83 60 62 -93 c34 -52 62 -106 62 -120 0 -15 12 -27 27 -27 17 0 25 18 22 50 -6 51 36 70 62 29 8 -14 21 -14 40 2 34 28 -3 114 -85 202 l-50 54 77 40 c99 53 110 48 139 -58z m1033 -329 c8 -40 1 -50 -31 -50 -22 0 -75 -36 -117 -81 -88 -92 -113 -51 -32 53 110 141 163 164 180 78z m716 -181 c68 -35 76 -60 20 -60 -21 0 -34 6 -29 14 4 7 -23 24 -61 37 -136 45 -273 -61 -293 -227 l-12 -103 -3 102 c-6 202 199 330 378 237z m-755 -24 c-33 -88 -146 -235 -146 -188 0 54 30 116 86 178 49 54 78 59 60 10z m-251 -170 c-7 -40 -10 -41 -24 -10 -8 19 -8 60 0 90 19 66 38 2 24 -80z m865 66 c0 -33 14 -67 32 -77 29 -16 25 -29 -29 -102 -33 -47 -64 -95 -69 -108 -13 -37 -88 39 -100 101 -12 65 14 140 71 200 59 63 95 57 95 -14z m278 -176 c0 -246 -89 -413 -207 -390 -64 12 -65 32 -2 61 68 31 136 173 143 301 5 90 32 163 60 163 3 0 6 -61 6 -135z m-1570 -50 c5 -25 9 -60 7 -79 -1 -18 33 -115 75 -215 86 -206 85 -214 -21 -169 -84 35 -603 148 -681 148 -72 0 -59 31 43 101 148 101 345 183 409 169 54 -12 120 27 120 71 0 39 40 17 48 -26z m2820 33 c18 -7 32 -27 32 -45 0 -18 18 -60 40 -93 118 -178 -47 -958 -178 -843 -63 56 -256 141 -480 213 -267 86 -280 101 -281 314 -1 179 42 214 259 210 223 -5 310 -41 312 -130 2 -87 14 -104 58 -87 25 10 29 29 19 83 -11 57 -7 70 20 70 26 0 32 15 27 65 -9 98 -138 138 -411 129 -113 -4 -205 -5 -205 -2 0 66 664 164 788 116z m-1400 -103 c-20 -84 -46 -125 -79 -125 -38 0 -37 6 11 101 47 91 87 106 68 24z m-1540 -490 c-9 -25 -20 -80 -27 -123 -10 -73 -64 -136 -92 -108 -7 7 16 72 52 145 65 131 95 170 67 86z m239 -27 c94 -32 131 -107 47 -92 -24 4 -44 -16 -63 -62 -32 -75 -164 -91 -143 -17 5 18 20 71 32 118 12 47 24 85 27 85 3 0 48 -15 100 -32z m1643 -63 c7 -41 44 -133 81 -204 85 -163 88 -162 -134 -51 -232 116 -241 125 -177 167 27 18 81 62 120 97 89 82 93 82 110 -9z m-1382 -100 c-12 -50 -83 -185 -97 -185 -4 0 -21 22 -39 49 -42 64 -8 152 56 145 25 -2 40 6 37 21 -3 14 9 25 25 25 23 0 28 -13 18 -55z m212 -3 c39 -10 95 -24 125 -30 92 -21 82 -142 -10 -124 -36 7 -99 18 -140 25 -69 11 -75 17 -75 80 0 74 1 74 100 49z m483 -94 c31 -9 65 -148 37 -148 -55 0 -220 67 -220 89 0 90 32 101 183 59z m297 -138 c0 -49 -9 -70 -30 -70 -16 0 -30 17 -30 38 0 21 -5 53 -12 70 -9 23 0 32 30 32 35 0 42 -12 42 -70z m-229 -179 c76 -75 38 -104 -109 -85 -104 15 -136 26 -128 47 6 15 0 27 -12 27 -12 0 -22 9 -22 20 0 32 238 25 271 -9z m-396 -179 c5 -6 0 -39 -13 -74 -12 -35 -22 -85 -22 -111 0 -41 -10 -47 -75 -47 -41 0 -110 -6 -152 -13 l-76 -13 6 128 7 128 90 13 c91 13 217 7 235 -11z m-1167 -41 c66 -262 -142 -392 -214 -134 -17 62 -37 129 -45 148 -12 31 1 35 117 35 121 0 130 -3 142 -49z m296 -104 l-7 -138 -78 8 -79 7 0 127 0 127 75 6 c41 4 80 5 85 3 6 -2 7 -65 4 -140z m412 18 c-6 -129 -8 -135 -54 -130 -26 3 -77 -3 -114 -13 -86 -24 -93 -11 -77 137 15 130 12 127 195 138 l56 3 -6 -135z m854 105 c46 -10 110 -106 110 -167 0 -39 -11 -41 -208 -40 l-208 2 30 102 c17 57 34 109 38 116 7 12 153 4 238 -13z m277 -55 c28 -105 16 -159 -32 -144 -58 18 -51 8 -67 105 -15 98 74 134 99 39z"/> <path d="M4274 1727 c-28 -27 -13 -70 21 -63 19 4 35 19 35 35 0 31 -35 49 -56 28z"/> </g> </svg> 